<svg width="30px" height="21.818px" viewBox="0 0 30px 21.818px"><path stroke-width="0" fill-rule="evenodd" d="M29.768 11.27c-0.509 0.775 -2.737 -0.548 -2.737 -0.548s-0.751 2.534 -3.334 3.747c-0.402 -0.536 -0.29 -1.972 -3.271 -4.433 -0.17 -1.128 -1.244 -2.264 -2.129 -3.055 -1.931 -1.68 -2.933 -1.658 -2.958 -1.688 0.784 -1.135 2.272 -2.785 4.3 -2.785L21.008 0.045l1.368 2.464s3.286 0.282 4.655 3.833c0 0 3.539 3.71 2.737 4.928Zm-5.303 -4.107c-0.712 -0.005 -1.572 1.035 -1.541 1.895 0.033 0.882 0.848 1.422 1.349 1.391 0.499 -0.031 1.079 -0.286 1.347 -1.113 0.269 -0.826 -0.807 -2.172 -1.155 -2.174Z"/><path stroke-width="0" fill-rule="evenodd" d="M23.45 16.901c-0.665 0.993 -3.57 -0.704 -3.57 -0.704S18.199 21.779 11.67 21.818c-6.224 0.037 -7.853 -5.621 -7.853 -5.621s-2.498 1.567 -3.57 0.704c-1.072 -0.865 2.704 -5.66 3.57 -6.323 0 0 2.396 -4.917 6.425 -4.917l1.784 -3.162 1.785 3.162s4.286 0.361 6.07 4.917c0 0 4.615 4.759 3.57 6.323ZM7.488 11.696c-0.461 0.003 -1.886 1.702 -1.53 2.745 0.356 1.043 1.124 1.366 1.785 1.406 0.663 0.04 1.741 -0.642 1.785 -1.756 0.042 -1.088 -1.096 -2.401 -2.04 -2.395Zm9.046 -0.065c-0.929 -0.007 -2.051 1.327 -2.009 2.431 0.042 1.132 1.106 1.825 1.758 1.785 0.652 -0.041 1.407 -0.368 1.758 -1.428 0.349 -1.06 -1.053 -2.786 -1.507 -2.789Z"/></svg>